<svg width="18" height="18" viewBox="0 0 18 18" fill="none" xmlns="http://www.w3.org/2000/svg">
<path d="M6.79688 6.23438V7.5H11.0156V6.23438C11.0156 5.07422 10.0664 4.125 8.90625 4.125C7.71973 4.125 6.79688 5.07422 6.79688 6.23438ZM5.10938 7.5V6.23438C5.10938 4.15137 6.79688 2.4375 8.90625 2.4375C10.9893 2.4375 12.7031 4.15137 12.7031 6.23438V7.5H13.125C14.0479 7.5 14.8125 8.26465 14.8125 9.1875V14.25C14.8125 15.1992 14.0479 15.9375 13.125 15.9375H4.6875C3.73828 15.9375 3 15.1992 3 14.25V9.1875C3 8.26465 3.73828 7.5 4.6875 7.5H5.10938Z" fill="#404245"/>
</svg>
